<?xml version="1.0" encoding="utf-8"?>
<!-- Generator: Adobe Illustrator 18.1.0, SVG Export Plug-In . SVG Version: 6.00 Build 0)  -->
<!DOCTYPE svg PUBLIC "-//W3C//DTD SVG 1.1//EN" "http://www.w3.org/Graphics/SVG/1.1/DTD/svg11.dtd">
<svg version="1.1" id="icons" xmlns="http://www.w3.org/2000/svg" xmlns:xlink="http://www.w3.org/1999/xlink" x="0px" y="0px"
	 viewBox="0 0 36 36" enable-background="new 0 0 36 36" xml:space="preserve">
<path fill="#FFFFFF" d="M26.8,22.4l9,9c0.1,0.2,0.2,0.3,0.2,0.5c0,0.2-0.1,0.4-0.2,0.5l-3.3,3.3C32.4,35.9,32.2,36,32,36
	c-0.2,0-0.4-0.1-0.5-0.2l-9-9c-2.4,1.6-5,2.3-7.8,2.3c-4,0-7.4-1.4-10.3-4.3C1.4,22,0,18.6,0,14.6c0-4,1.4-7.4,4.3-10.3
	C7.1,1.4,10.5,0,14.6,0S22,1.4,24.8,4.3c2.8,2.8,4.3,6.3,4.3,10.3C29.1,17.4,28.3,20,26.8,22.4z M7.5,21.6c1.9,1.9,4.3,2.9,7,2.9
	c2.7,0,5.1-1,7-2.9c1.9-1.9,2.9-4.3,2.9-7c0-2.7-1-5.1-2.9-7c-1.9-1.9-4.3-2.9-7-2.9c-2.7,0-5.1,1-7,2.9c-1.9,1.9-2.9,4.3-2.9,7
	C4.6,17.3,5.6,19.6,7.5,21.6z"/>
</svg>
