<?xml version="1.0" encoding="iso-8859-1"?>
<!-- Generator: Adobe Illustrator 16.0.0, SVG Export Plug-In . SVG Version: 6.00 Build 0)  -->
<!DOCTYPE svg PUBLIC "-//W3C//DTD SVG 1.1//EN" "http://www.w3.org/Graphics/SVG/1.1/DTD/svg11.dtd">
<svg version="1.1" id="Capa_1" xmlns="http://www.w3.org/2000/svg" xmlns:xlink="http://www.w3.org/1999/xlink" x="0px" y="0px"
	 width="533.333px" height="533.333px" viewBox="0 0 533.333 533.333" style="enable-background:new 0 0 533.333 533.333;"
	 xml:space="preserve">
<g>
	<path d="M70.986,391.109C31.821,391.109,0,423.054,0,461.982c0,39.143,31.823,70.73,70.985,70.73
		c39.305,0,71.091-31.588,71.091-70.73C142.076,423.054,110.293,391.109,70.986,391.109z M0.081,181.213v102.217
		c66.554,0,129.145,26.027,176.28,73.184c47.075,47.041,73.063,109.916,73.063,176.719h102.667
		C352.091,339.156,194.133,181.213,0.081,181.213z M0.202,0v102.269c237.386,0,430.602,193.404,430.602,431.064h102.529
		C533.333,239.339,294.139,0,0.202,0z"/>
</g>
<g>
</g>
<g>
</g>
<g>
</g>
<g>
</g>
<g>
</g>
<g>
</g>
<g>
</g>
<g>
</g>
<g>
</g>
<g>
</g>
<g>
</g>
<g>
</g>
<g>
</g>
<g>
</g>
<g>
</g>
</svg>
